<svg xmlns="http://www.w3.org/2000/svg" viewBox="0 0 227.104 80.459"><path d="M38.062 48.377c-1.194-.027-3.309-.68-4.656-4.557-.796-2.291-1.39-6.315-1.765-11.959l-.015-.224-.223.023c-1.64.173-4.703.612-6.795 1.608l-.05.024-.032.045c-3.394 4.75-7.597 7.347-12.493 7.718-.626.048-1.238.072-1.819.072-3.807 0-6.63-1.013-8.391-3.01C.73 36.879.225 35.449 0 34.258c.538 1.379 1.431 2.587 2.648 3.564 1.83 1.468 4.28 2.277 6.9 2.277h.001c6.247-.001 14.295-4.593 18.152-17.479a190.987 190.987 0 0 0 3.256-10.918c.492-1.827.817-3.035 1.066-3.035.028 0 .081.012.175.068.252.408.373 3.995.501 7.79.189 5.631.449 13.342 1.277 19.782.885 6.873 2.226 10.843 4.086 12.07zm-7.236-28.013c-.253 0-.332.225-.771 1.476-.289.822-.684 1.949-1.267 3.382-.405.995-1.158 2.847-2.215 4.809l-.275.51.541-.206c1.569-.597 3.077-.722 4.066-.722.131 0 .255.002.369.006l.234.007-.012-.234c-.125-2.413-.191-4.613-.235-6.069a87.274 87.274 0 0 0-.063-1.791c-.047-.831-.078-1.168-.372-1.168zm38.033 18.969c-.982 0-1.76-.302-2.379-.922-1.508-1.51-1.685-4.639-1.684-6.879.097-.227.253-.333.487-.333.426 0 .955.334 1.19.522.057.123.1.629.139 1.078.147 1.707.392 4.563 2.175 4.563.316 0 .667-.096 1.043-.285.996-.501 1.591-1.602 1.769-3.272a11.75 11.75 0 0 0-.058-2.735l-.001-.009c.033-.065.29-.207.676-.207.227 0 .763.055.85.568.159.94.236 1.651.299 2.223.183 1.68.245 2.245 1.877 3.891.77.776 1.797 1.174 3.137 1.214a7.037 7.037 0 0 1-1.835.258c-1.491 0-2.588-.564-3.284-.988-.239-.146-.404-.208-.554-.208-.24 0-.379.155-.527.319-.292.324-.781.866-2.605 1.152-.244.033-.486.05-.715.05z"/><path d="M50.213 73.012c-2.933 0-5.831-.94-8.159-2.646-2.615-1.916-4.471-4.746-5.367-8.185-1.055-4.046-.506-7.587 1.63-10.525 1.856-2.554 4.864-4.612 8.94-6.119 3.689-1.363 8.237-2.237 13.153-2.526l.231-.014-.03-.229c-.241-1.869-.53-3.769-.859-5.647l-.422-.016a12.29 12.29 0 0 1-.276.939c-.644.968-1.784 1.523-3.132 1.523-1.283 0-2.523-.504-3.318-1.348a3.272 3.272 0 0 1-.894-2.501c.19-3.112 2.712-4.74 5.106-4.74.614 0 1.196.106 1.731.316.034.028.068.057.1.086l.096.085.121-.043c.58-.207 1.135-.393 1.547-.393.347 0 .511.124.565.428.157.868.894 5.599 1.378 11.268l.017.202.203-.005a67.364 67.364 0 0 1 6.281.147c12.863.909 25.635 1.451 34.164 1.451 3.191 0 5.665-.074 7.396-.219-2.252.515-7.198 1.159-17.856 1.159-.991 0-2.027-.006-3.08-.017-5.533-.059-10.571-.367-15.016-.638-4.085-.249-7.944-.484-11.475-.484l-.506.001.017.231c.651 8.941.304 16.068-1.004 20.61a10.337 10.337 0 0 1-4.302 5.84c-1.992 1.314-4.406 2.009-6.98 2.009zM60.605 44.36c-6.253.213-10.989 1.361-15.357 3.72-6.646 3.59-7.509 8.597-7.432 11.262.132 4.573 3.04 8.964 7.236 10.927 1.835.858 3.679 1.294 5.478 1.294 2.914 0 5.465-1.138 7.377-3.291 2.054-2.313 3.254-5.723 3.472-9.864.214-4.079.029-8.741-.552-13.857l-.022-.198-.2.007zm-3.996-12.365c-1.229 0-2.884 1.45-3.096 3.251-.085.719.227 1.575.814 2.235.569.64 1.317 1.007 2.051 1.007.838 0 2.053-.457 3.079-2.634l.015-.035.032-.072-.012-.066c-.14-.747-.283-1.474-.426-2.162l-.012-.058-.04-.044c-.534-.579-1.224-.925-1.401-1.009a1.364 1.364 0 0 0-1.004-.413z"/><path d="M82.085 39.617c-.897 0-1.684-.166-2.157-.455-.917-.56-.956-1.41-.929-1.75.029-.376.16-.61.232-.68a.46.46 0 0 1 .026.051c.313 1.143 1.587 1.55 2.586 1.55.896 0 1.646-.302 1.91-.77.115-.203.198-.534-.059-.96-.493-.819-1.615-1.127-2.7-1.425-1.159-.318-2.253-.618-2.359-1.476-.121-1.028.075-1.839.582-2.409.786-.884 2.214-1.069 3.273-1.069.296 0 .608.014.928.042.724.063 1.301.448 1.543 1.03.171.412.139.849-.082 1.114-.162.193-.243.218-.295.218-.104 0-.266-.092-.489-.219-.325-.185-.769-.439-1.47-.666a1.11 1.11 0 0 0-.387-.065c-.516 0-1.099.295-1.418.718-.252.334-.328.713-.219 1.096.143.499.835.74 1.711 1.044 1.287.447 2.89 1.004 3.55 2.526.198.457.178.873-.06 1.236-.51.776-2.038 1.319-3.717 1.319z"/><path d="M94.049 40.281c-1.614 0-4.434-.701-5.186-5.395-.038-.235-.074-.471-.11-.706l-.029-.193-.195.01a18.64 18.64 0 0 1-.886.023c-1.18 0-2.007-.139-2.46-.415a1.277 1.277 0 0 1 .352-.864c.358-.394.935-.629 1.544-.629l.099.002c.239.01.571.041 1.031.089l.27.028-.034-.27c-.606-4.805-.649-7.968-.449-8.483l.045.004c.609.058 1.299.125 1.55.45.101.13.132.305.096.536-.122.772-.169 4.441.298 7.743l.024.171.172.014c.896.074 1.666.11 2.356.11.953 0 1.74-.067 2.402-.206.318.201.586.472.568.581-.005.031-.095.128-.445.198-1.68.336-3.213.586-4.557.745l-.238.028.052.234c.336 1.496.781 2.603 1.324 3.29.949 1.202 1.96 1.454 2.641 1.454 1.192 0 2.208-.758 2.487-1.316.151.244.339.694.33 1.162-.008.454-.203.797-.58 1.019-.454.271-1.376.586-2.472.586zm5.744-.292c-.556 0-1.055-.121-1.484-.36-.739-.412-1.252-1.391-1.445-2.756-.323-2.282.319-4.898 1.493-6.083.769-.776 1.592-1.186 2.38-1.186.757 0 1.324.377 1.561.665-.034.208-.195.748-.932.748-.149 0-.314-.022-.493-.064a.974.974 0 0 0-.221-.026c-.557 0-1.084.482-1.523 1.395-.383.795-.659 1.857-.738 2.841-.051.637-.061 1.802.454 2.446.522.654 1.046.972 1.601.972.79 0 1.426-.662 1.938-1.194.152-.158.295-.307.424-.419l.125-.109-.073-.149c-.563-1.144-.861-2.666-.885-4.525.218-.239.698-.737 1.029-.737.245 0 .371.379.432.696.036.184.06.446.087.75.161 1.761.495 5.427 4.754 5.427 1.02 0 2.22-.213 3.576-.632-.494.547-1.707 1.402-4.518 1.528a6.85 6.85 0 0 1-.319.007c-1.323 0-2.4-.394-3.202-1.17l-.2-.194-.137.243c-.637 1.128-2.42 1.886-3.684 1.886zm33.721 0c-.556 0-1.055-.121-1.484-.36-.739-.412-1.252-1.391-1.445-2.756-.323-2.282.319-4.898 1.493-6.083.606-.612 1.277-.922 1.993-.922 1.091 0 2.004.706 2.349 1.117l-.191.306.341.038c.291.033.488.307.587.816.024.125.048.273.076.44.301 1.836 1.006 6.136 6.144 6.136.473 0 .978-.037 1.504-.111a.377.377 0 0 1-.031.262c-.115.227-.662.768-3.254.884a5.748 5.748 0 0 1-.261.006c-1.493 0-2.76-.582-3.769-1.729l-.204-.233-.147.272c-.501.926-2.108 1.917-3.701 1.917zm.838-8.418c-.595 0-1.168.512-1.616 1.441-.697 1.449-.932 3.642-.169 4.597.34.425.7.641 1.071.641.893 0 1.564-1.214 2.156-2.285.089-.16.174-.316.258-.46l.049-.084-.031-.092a11.542 11.542 0 0 1-.586-3.452l-.004-.225-.225.013a2.399 2.399 0 0 1-.658-.065 1.085 1.085 0 0 0-.245-.029zm-17.205 48.885c-.787-5.656-2.334-24.579-2.618-42.151-.086-5.336-.219-10.254-.335-14.592-.258-9.574-.462-17.161-.059-23.714.294.111.893.516 1.424 1.993.594 1.65.688 15.831.757 26.185l.001.113h.001c.005.501.73.804 2.349.982 1.071.118 2.512.177 4.281.177.672 0 1.374-.009 2.086-.026l.216-.005-.006-.216c-.124-4.57-.052-9.355.017-13.983.04-2.66.078-5.177.08-7.627l.06.005c.889.066 1.257.093 1.483 2.592.244 2.704.244 8.364.244 18.638 0 10.61 1.889 19.371 5.331 24.789-2.36-1.489-4.086-4.225-5.272-8.353-1.013-3.525-1.625-8.107-1.872-14.007l-.008-.197-.197-.009a71.782 71.782 0 0 0-3.262-.081c-2.72 0-4.53.196-5.38.583l-.127.058.001.14c.016 2.157.038 4.576.075 6.166.037 1.604.115 4.282.214 7.672.261 8.957.657 22.492.734 31.467.015 1.766-.105 2.862-.218 3.403v-.002z"/><path d="M144.075 39.989c-.094 0-.177-.04-.262-.125-.91-.912-.898-5.55-.89-8.619v-.089c.198-.047.38-.07.544-.07.947 0 1.029.798 1.032.832l.075.83.337-.762c.353-.797.599-.943.957-.943.279 0 .643.097 1.146.232.16.043.333.089.52.137 1.616.411 2.25 2.855 2.256 2.879l.423-.025c.24-1.883.655-3.007.85-3.064l.021.004c1.787.106 2.596.833 3.46 3.11.374.986 1.721 4.201 3.341 4.201.311 0 .609-.118.884-.351.351-.297.713-.454 1.046-.454.394 0 .639.215.73.399.045.091.1.269-.028.447-.743.697-1.566 1.05-2.447 1.05-2.157 0-4.057-2.11-4.582-4.065-.313-1.167-.727-1.759-1.23-1.759-.128 0-.321.043-.517.249-.514.54-.796 1.934-.717 3.552.069 1.424-.078 1.892-.214 2.034a.154.154 0 0 1-.124.052c-.142 0-.355-.108-.561-.213-.158-.08-.322-.164-.489-.22-.538-.182-.998-2.089-1.405-3.771-.156-.644-.316-1.31-.491-1.943-.162-.587-.416-.884-.754-.884-.2 0-.405.112-.608.333-.829.9-1.607 3.485-1.486 4.938.023.284.048.533.069.751.063.644.105 1.07-.007 1.196-.099.111-.455.126-.875.133l-.004-.002z"/><path d="M174.368 40.048c-1.06 0-2.193-.522-3.192-1.47-.903-.857-1.609-1.993-1.889-3.037-.397-1.481-.664-1.779-.966-1.779-.478 0-.723.777-1.19 3.778-.287 1.843-.523 2.118-.638 2.118-.08 0-.219-.084-.353-.165-.149-.089-.317-.191-.513-.257-.443-.15-.676-1.42-.921-2.764-.149-.813-.317-1.735-.564-2.626-.063-.228-.255-.921-.744-.921-.996 0-1.89 3.373-1.89 4.967 0 .126.021.264.043.411.046.301.098.642-.059.828-.113.134-.345.206-.689.211h-.011a.51.51 0 0 1-.382-.16c-.615-.622-.589-2.857-.561-5.223.005-.425.01-.859.012-1.297 1.667-.481 1.757-.571 1.785-.703.347-.774.592-.917.946-.917.279 0 .642.097 1.146.232.16.043.333.089.52.137 1.551.394 1.309 2.053 1.298 2.123l.392.154c.852-1.271 1.57-1.842 1.808-1.842l.023.002.015.003.015.001c.1.006.202.009.303.009a7.3 7.3 0 0 0 .779-.048c.164-.016.306-.031.429-.031.444 0 .712.111 1.074 2.381.438 2.747 1.419 4.14 2.918 4.14.906 0 1.968-.526 3.155-1.563.195-.17.369-.26.503-.26.126 0 .234.09.322.268.264.536.191 1.489-.055 1.817-.85.984-1.815 1.483-2.869 1.483z"/><path d="M179.014 40.194c-.461 0-1.068-.109-1.346-.629-1.784-3.343-1.615-6.628.406-8.008.312-.066.639-.099.972-.099 1.416 0 2.768.589 3.616 1.575.836.972 1.157 2.282.93 3.788-.269 1.785-2.784 3.373-4.578 3.373zm.551-6.799c.203 1.216-1.157 4.294-1.171 4.325l-.089.199.2.087c.397.172.795.26 1.182.26.703 0 1.339-.286 1.79-.805.417-.479.609-1.086.528-1.665-.197-1.405-2.035-2.57-2.113-2.619l-.406-.254.079.472zm11.082 6.981a5.787 5.787 0 0 1-2.595-.628c-1.789-.889-2.309-2.358-2.43-3.434-.211-1.88.634-3.796 1.573-4.563.559-.456 1.185-.552 1.612-.552.842 0 1.661.38 2.037.945.24.36.286.769.135 1.188a.745.745 0 0 1-.272.05c-.229 0-.462-.096-.708-.198-.277-.114-.563-.232-.882-.232-.254 0-.489.074-.718.228-.707.471-1.934 1.908-1.708 3.247.167.986 1.054 1.694 2.637 2.104a6.45 6.45 0 0 0 1.613.213c1.867 0 3.092-.878 3.578-1.306.14.46-.016.889-.191 1.188-.706 1.202-2.403 1.75-3.681 1.75zm22.797 4.303c-2.921 0-5.867-.885-8.756-2.631-3.512-2.253-5.843-4.416-7.18-5.834l-.422-.447.05.613c.114 1.407.271 3.334-.03 3.661-.018.019-.027.02-.04.02-.032 0-.158-.02-.432-.275-.864-.805-1.894-4.544-1.903-17.756l.057-.002c.243 0 .652.086 1.225.495.585.617.602 1.457.697 5.967l.039 1.782c.006.255.013.508.023.759l.02.556.36-.425c.196-.232.892-1.012 1.597-1.308a.723.723 0 0 1 .282-.053c.523 0 1.185.461 1.316.818.042.114.003.148-.018.165a120.014 120.014 0 0 0-2.535 2.235l-.154.14.135.159c.099.117.256.337.454.615 1.603 2.249 6.481 9.094 15.052 9.094 4.303 0 8.947-1.729 13.823-5.144a24.731 24.731 0 0 1-2.94 2.735c-2.355 1.854-6.127 4.061-10.72 4.061zm-163.371-3.91c-.574 0-2.589-.187-4.446-2.589-.124-.161-.264-.31-.442-.31-.243 0-.339.236-.45.509-.238.586-.68 1.676-2.636 1.982a4.418 4.418 0 0 1-.599.042c-.891 0-1.648-.306-2.25-.909-1.301-1.303-1.932-3.908-1.929-7.962.097-.227.253-.333.487-.333.424 0 .95.331 1.188.519.057.138.097.717.131 1.23.137 2.029.366 5.425 2.325 5.425.276 0 .576-.072.893-.213 3.022-1.346 2.42-7.073 2.368-7.512.078-.087.466-.23.947-.23.37 0 .673.088.809.235.07.076.098.166.089.284l-.001.013.001.013c.185 4.218.554 5.008 1.443 6.917l.261.564c.731 1.594 2.197 1.977 2.901 2.161l.009.002a3.839 3.839 0 0 1-1.099.162z"/></svg>