<?xml version="1.0" encoding="utf-8"?>
<svg version="1.1" id="augusta-hammock-signature" xmlns="http://www.w3.org/2000/svg" xmlns:xlink="http://www.w3.org/1999/xlink" x="0px" y="0px"
	 viewBox="0 0 227.104 80.459" enable-background="new 0 0 227.104 80.459" xml:space="preserve">
<g>
	<path d="M38.062,48.377c-1.194-0.027-3.309-0.68-4.656-4.557c-0.796-2.291-1.39-6.315-1.765-11.959l-0.015-0.224
		l-0.223,0.023c-1.64,0.173-4.703,0.612-6.795,1.608l-0.05,0.024l-0.032,0.045c-3.394,4.75-7.597,7.347-12.493,7.718
		c-0.626,0.048-1.238,0.072-1.819,0.072c-3.807,0-6.63-1.013-8.391-3.01C0.73,36.879,0.225,35.449,0,34.258
		c0.538,1.379,1.431,2.587,2.648,3.564c1.83,1.468,4.28,2.277,6.9,2.277c0,0,0.001,0,0.001,0
		c6.247-0.001,14.295-4.593,18.152-17.479c1.742-5.293,2.69-8.815,3.256-10.918c0.492-1.827,0.817-3.035,1.066-3.035
		c0.028,0,0.081,0.012,0.175,0.068c0.252,0.408,0.373,3.995,0.501,7.79c0.189,5.631,0.449,13.342,1.277,19.782
		C34.861,43.18,36.202,47.15,38.062,48.377z M30.826,20.364c-0.253,0-0.332,0.225-0.771,1.476c-0.289,0.822-0.684,1.949-1.267,3.382
		c-0.405,0.995-1.158,2.847-2.215,4.809l-0.275,0.51l0.541-0.206c1.569-0.597,3.077-0.722,4.066-0.722
		c0.131,0,0.255,0.002,0.369,0.006l0.234,0.007l-0.012-0.234c-0.125-2.413-0.191-4.613-0.235-6.069
		c-0.025-0.843-0.044-1.452-0.063-1.791C31.151,20.701,31.12,20.364,30.826,20.364z"/>
	<path d="M68.859,39.333c-0.982,0-1.76-0.302-2.379-0.922c-1.508-1.51-1.685-4.639-1.684-6.879
		c0.097-0.227,0.253-0.333,0.487-0.333c0.426,0,0.955,0.334,1.19,0.522c0.057,0.123,0.1,0.629,0.139,1.078
		c0.147,1.707,0.392,4.563,2.175,4.563c0.316,0,0.667-0.096,1.043-0.285c0.996-0.501,1.591-1.602,1.769-3.272
		c0.061-0.577,0.101-1.519-0.058-2.735l-0.001-0.009c0.033-0.065,0.29-0.207,0.676-0.207c0.227,0,0.763,0.055,0.85,0.568
		c0.159,0.94,0.236,1.651,0.299,2.223c0.183,1.68,0.245,2.245,1.877,3.891c0.77,0.776,1.797,1.174,3.137,1.214
		c-0.636,0.172-1.25,0.258-1.835,0.258c-1.491,0-2.588-0.564-3.284-0.988c-0.239-0.146-0.404-0.208-0.554-0.208
		c-0.24,0-0.379,0.155-0.527,0.319c-0.292,0.324-0.781,0.866-2.605,1.152C69.33,39.316,69.088,39.333,68.859,39.333z"/>
	<path d="M50.213,73.012c-2.933,0-5.831-0.94-8.159-2.646c-2.615-1.916-4.471-4.746-5.367-8.185
		c-1.055-4.046-0.506-7.587,1.63-10.525c1.856-2.554,4.864-4.612,8.94-6.119c3.689-1.363,8.237-2.237,13.153-2.526l0.231-0.014
		l-0.03-0.229c-0.241-1.869-0.53-3.769-0.859-5.647l-0.422-0.016c-0.126,0.497-0.245,0.848-0.276,0.939
		c-0.644,0.968-1.784,1.523-3.132,1.523c-1.283,0-2.523-0.504-3.318-1.348c-0.643-0.683-0.952-1.548-0.894-2.501
		c0.19-3.112,2.712-4.74,5.106-4.74c0.614,0,1.196,0.106,1.731,0.316c0.034,0.028,0.068,0.057,0.1,0.086l0.096,0.085l0.121-0.043
		c0.58-0.207,1.135-0.393,1.547-0.393c0.347,0,0.511,0.124,0.565,0.428c0.157,0.868,0.894,5.599,1.378,11.268l0.017,0.202
		l0.203-0.005c0.52-0.013,1.05-0.019,1.575-0.019c1.559,0,3.142,0.056,4.706,0.166c12.863,0.909,25.635,1.451,34.164,1.451
		c3.191,0,5.665-0.074,7.396-0.219c-2.252,0.515-7.198,1.159-17.856,1.159c-0.991,0-2.027-0.006-3.08-0.017
		c-5.533-0.059-10.571-0.367-15.016-0.638c-4.085-0.249-7.944-0.484-11.475-0.484l-0.506,0.001l0.017,0.231
		c0.651,8.941,0.304,16.068-1.004,20.61c-0.699,2.426-2.186,4.445-4.302,5.84C55.201,72.317,52.787,73.012,50.213,73.012z
		 M60.605,44.36c-6.253,0.213-10.989,1.361-15.357,3.72c-6.646,3.59-7.509,8.597-7.432,11.262c0.132,4.573,3.04,8.964,7.236,10.927
		c1.835,0.858,3.679,1.294,5.478,1.294c2.914,0,5.465-1.138,7.377-3.291c2.054-2.313,3.254-5.723,3.472-9.864
		c0.214-4.079,0.029-8.741-0.552-13.857l-0.022-0.198L60.605,44.36z M56.609,31.995c-1.229,0-2.884,1.45-3.096,3.251
		c-0.085,0.719,0.227,1.575,0.814,2.235c0.569,0.64,1.317,1.007,2.051,1.007c0.838,0,2.053-0.457,3.079-2.634
		c0.005-0.012,0.01-0.023,0.015-0.035l0.032-0.072l-0.012-0.066c-0.14-0.747-0.283-1.474-0.426-2.162l-0.012-0.058l-0.04-0.044
		c-0.534-0.579-1.224-0.925-1.401-1.009C57.35,32.138,57.005,31.995,56.609,31.995z"/>
	<path d="M82.085,39.617c-0.897,0-1.684-0.166-2.157-0.455c-0.917-0.56-0.956-1.41-0.929-1.75
		c0.029-0.376,0.16-0.61,0.232-0.68c0.007,0.012,0.016,0.028,0.026,0.051c0.313,1.143,1.587,1.55,2.586,1.55
		c0.896,0,1.646-0.302,1.91-0.77c0.115-0.203,0.198-0.534-0.059-0.96c-0.493-0.819-1.615-1.127-2.7-1.425
		c-1.159-0.318-2.253-0.618-2.359-1.476c-0.121-1.028,0.075-1.839,0.582-2.409c0.786-0.884,2.214-1.069,3.273-1.069
		c0.296,0,0.608,0.014,0.928,0.042c0.724,0.063,1.301,0.448,1.543,1.03c0.171,0.412,0.139,0.849-0.082,1.114
		c-0.162,0.193-0.243,0.218-0.295,0.218c-0.104,0-0.266-0.092-0.489-0.219c-0.325-0.185-0.769-0.439-1.47-0.666
		c-0.116-0.043-0.246-0.065-0.387-0.065c-0.516,0-1.099,0.295-1.418,0.718c-0.252,0.334-0.328,0.713-0.219,1.096
		c0.143,0.499,0.835,0.74,1.711,1.044c1.287,0.447,2.89,1.004,3.55,2.526c0.198,0.457,0.178,0.873-0.06,1.236
		C85.292,39.074,83.764,39.617,82.085,39.617C82.085,39.617,82.085,39.617,82.085,39.617z"/>
	<path d="M94.049,40.281c-1.614,0-4.434-0.701-5.186-5.395c-0.038-0.235-0.074-0.471-0.11-0.706l-0.029-0.193
		l-0.195,0.01c-0.312,0.015-0.611,0.023-0.886,0.023c-1.18,0-2.007-0.139-2.46-0.415c-0.002-0.306,0.121-0.609,0.352-0.864
		c0.358-0.394,0.935-0.629,1.544-0.629c0.033,0,0.066,0.001,0.099,0.002c0.239,0.01,0.571,0.041,1.031,0.089l0.27,0.028l-0.034-0.27
		c-0.606-4.805-0.649-7.968-0.449-8.483l0.045,0.004c0.609,0.058,1.299,0.125,1.55,0.45c0.101,0.13,0.132,0.305,0.096,0.536
		c-0.122,0.772-0.169,4.441,0.298,7.743l0.024,0.171l0.172,0.014c0.896,0.074,1.666,0.11,2.356,0.11c0.953,0,1.74-0.067,2.402-0.206
		c0.318,0.201,0.586,0.472,0.568,0.581c-0.005,0.031-0.095,0.128-0.445,0.198c-1.68,0.336-3.213,0.586-4.557,0.745l-0.238,0.028
		l0.052,0.234c0.336,1.496,0.781,2.603,1.324,3.29c0.949,1.202,1.96,1.454,2.641,1.454c0,0,0,0,0,0c1.192,0,2.208-0.758,2.487-1.316
		c0.151,0.244,0.339,0.694,0.33,1.162c-0.008,0.454-0.203,0.797-0.58,1.019C96.067,39.966,95.145,40.281,94.049,40.281
		C94.049,40.281,94.049,40.281,94.049,40.281z"/>
	<path d="M99.793,39.989c-0.556,0-1.055-0.121-1.484-0.36c-0.739-0.412-1.252-1.391-1.445-2.756
		c-0.323-2.282,0.319-4.898,1.493-6.083c0.769-0.776,1.592-1.186,2.38-1.186c0.757,0,1.324,0.377,1.561,0.665
		c-0.034,0.208-0.195,0.748-0.932,0.748c-0.149,0-0.314-0.022-0.493-0.064c-0.073-0.017-0.147-0.026-0.221-0.026
		c-0.557,0-1.084,0.482-1.523,1.395c-0.383,0.795-0.659,1.857-0.738,2.841c-0.051,0.637-0.061,1.802,0.454,2.446
		c0.522,0.654,1.046,0.972,1.601,0.972h0c0.79,0,1.426-0.662,1.938-1.194c0.152-0.158,0.295-0.307,0.424-0.419l0.125-0.109
		l-0.073-0.149c-0.563-1.144-0.861-2.666-0.885-4.525c0.218-0.239,0.698-0.737,1.029-0.737c0.245,0,0.371,0.379,0.432,0.696
		c0.036,0.184,0.06,0.446,0.087,0.75c0.161,1.761,0.495,5.427,4.754,5.427c1.02,0,2.22-0.213,3.576-0.632
		c-0.494,0.547-1.707,1.402-4.518,1.528c-0.107,0.005-0.214,0.007-0.319,0.007c-1.323,0-2.4-0.394-3.202-1.17l-0.2-0.194
		l-0.137,0.243C102.84,39.231,101.057,39.989,99.793,39.989z"/>
	<path d="M133.514,39.989c-0.556,0-1.055-0.121-1.484-0.36c-0.739-0.412-1.252-1.391-1.445-2.756
		c-0.323-2.282,0.319-4.898,1.493-6.083c0.606-0.612,1.277-0.922,1.993-0.922c1.091,0,2.004,0.706,2.349,1.117
		c-0.003,0.005-0.191,0.306-0.191,0.306l0.341,0.038c0.291,0.033,0.488,0.307,0.587,0.816c0.024,0.125,0.048,0.273,0.076,0.44
		c0.301,1.836,1.006,6.136,6.144,6.136c0.473,0,0.978-0.037,1.504-0.111c0.016,0.068,0.02,0.162-0.031,0.262
		c-0.115,0.227-0.662,0.768-3.254,0.884c-0.088,0.004-0.175,0.006-0.261,0.006h0c-1.493,0-2.76-0.582-3.769-1.729l-0.204-0.233
		l-0.147,0.272C136.714,38.998,135.107,39.989,133.514,39.989z M134.352,31.571c-0.595,0-1.168,0.512-1.616,1.441
		c-0.697,1.449-0.932,3.642-0.169,4.597c0.34,0.425,0.7,0.641,1.071,0.641c0.893,0,1.564-1.214,2.156-2.285
		c0.089-0.16,0.174-0.316,0.258-0.46l0.049-0.084l-0.031-0.092c-0.363-1.076-0.566-2.269-0.586-3.452l-0.004-0.225l-0.225,0.013
		c-0.036,0.002-0.073,0.003-0.111,0.003c-0.172,0-0.356-0.023-0.547-0.068C134.515,31.581,134.433,31.571,134.352,31.571z"/>
	<path d="M117.147,80.456c-0.787-5.656-2.334-24.579-2.618-42.151c-0.086-5.336-0.219-10.254-0.335-14.592
		c-0.258-9.574-0.462-17.161-0.059-23.714c0.294,0.111,0.893,0.516,1.424,1.993c0.594,1.65,0.688,15.831,0.757,26.185l0.001,0.113
		l0.001,0c0.005,0.501,0.73,0.804,2.349,0.982c1.071,0.118,2.512,0.177,4.281,0.177c0.672,0,1.374-0.009,2.086-0.026l0.216-0.005
		l-0.006-0.216c-0.124-4.57-0.052-9.355,0.017-13.983c0.04-2.66,0.078-5.177,0.08-7.627c0.02,0.002,0.04,0.003,0.06,0.005
		c0.889,0.066,1.257,0.093,1.483,2.592c0.244,2.704,0.244,8.364,0.244,18.638c0,10.61,1.889,19.371,5.331,24.789
		c-2.36-1.489-4.086-4.225-5.272-8.353c-1.013-3.525-1.625-8.107-1.872-14.007l-0.008-0.197l-0.197-0.009
		c-0.789-0.037-1.995-0.081-3.262-0.081c-2.72,0-4.53,0.196-5.38,0.583l-0.127,0.058l0.001,0.14
		c0.016,2.157,0.038,4.576,0.075,6.166c0.037,1.604,0.115,4.282,0.214,7.672c0.261,8.957,0.657,22.492,0.734,31.467
		c0.015,1.766-0.105,2.862-0.218,3.403C117.148,80.458,117.147,80.457,117.147,80.456z"/>
	<path d="M144.075,39.989c-0.094,0-0.177-0.04-0.262-0.125c-0.91-0.912-0.898-5.55-0.89-8.619l0-0.089
		c0.198-0.047,0.38-0.07,0.544-0.07c0.947,0,1.029,0.798,1.032,0.832l0.075,0.83l0.337-0.762c0.353-0.797,0.599-0.943,0.957-0.943
		c0.279,0,0.643,0.097,1.146,0.232c0.16,0.043,0.333,0.089,0.52,0.137c1.616,0.411,2.25,2.855,2.256,2.879l0.423-0.025
		c0.24-1.883,0.655-3.007,0.85-3.064l0.021,0.004c1.787,0.106,2.596,0.833,3.46,3.11c0.374,0.986,1.721,4.201,3.341,4.201
		c0.311,0,0.609-0.118,0.884-0.351c0.351-0.297,0.713-0.454,1.046-0.454c0.394,0,0.639,0.215,0.73,0.399
		c0.045,0.091,0.1,0.269-0.028,0.447c-0.743,0.697-1.566,1.05-2.447,1.05c-2.157,0-4.057-2.11-4.582-4.065
		c-0.313-1.167-0.727-1.759-1.23-1.759c-0.128,0-0.321,0.043-0.517,0.249c-0.514,0.54-0.796,1.934-0.717,3.552
		c0.069,1.424-0.078,1.892-0.214,2.034c-0.035,0.037-0.071,0.052-0.124,0.052c-0.142,0-0.355-0.108-0.561-0.213
		c-0.158-0.08-0.322-0.164-0.489-0.22c-0.538-0.182-0.998-2.089-1.405-3.771c-0.156-0.644-0.316-1.31-0.491-1.943
		c-0.162-0.587-0.416-0.884-0.754-0.884c-0.2,0-0.405,0.112-0.608,0.333c-0.829,0.9-1.607,3.485-1.486,4.938
		c0.023,0.284,0.048,0.533,0.069,0.751c0.063,0.644,0.105,1.07-0.007,1.196c-0.099,0.111-0.455,0.126-0.875,0.133L144.075,39.989z"
		/>
	<path d="M174.368,40.048c-1.06,0-2.193-0.522-3.192-1.47c-0.903-0.857-1.609-1.993-1.889-3.037
		c-0.397-1.481-0.664-1.779-0.966-1.779c-0.478,0-0.723,0.777-1.19,3.778c-0.287,1.843-0.523,2.118-0.638,2.118
		c-0.08,0-0.219-0.084-0.353-0.165c-0.149-0.089-0.317-0.191-0.513-0.257c-0.443-0.15-0.676-1.42-0.921-2.764
		c-0.149-0.813-0.317-1.735-0.564-2.626c-0.063-0.228-0.255-0.921-0.744-0.921c-0.996,0-1.89,3.373-1.89,4.967
		c0,0.126,0.021,0.264,0.043,0.411c0.046,0.301,0.098,0.642-0.059,0.828c-0.113,0.134-0.345,0.206-0.689,0.211l-0.011,0
		c-0.152,0-0.273-0.051-0.382-0.16c-0.615-0.622-0.589-2.857-0.561-5.223c0.005-0.425,0.01-0.859,0.012-1.297
		c1.667-0.481,1.757-0.571,1.785-0.703c0.347-0.774,0.592-0.917,0.946-0.917c0.279,0,0.642,0.097,1.146,0.232
		c0.16,0.043,0.333,0.089,0.52,0.137c1.551,0.394,1.309,2.053,1.298,2.123l0.392,0.154c0.852-1.271,1.57-1.842,1.808-1.842
		c0.008,0,0.015,0.001,0.023,0.002l0.015,0.003l0.015,0.001c0.1,0.006,0.202,0.009,0.303,0.009c0.301,0,0.555-0.025,0.779-0.048
		c0.164-0.016,0.306-0.031,0.429-0.031c0.444,0,0.712,0.111,1.074,2.381c0.438,2.747,1.419,4.14,2.918,4.14
		c0.906,0,1.968-0.526,3.155-1.563c0.195-0.17,0.369-0.26,0.503-0.26c0.126,0,0.234,0.09,0.322,0.268
		c0.264,0.536,0.191,1.489-0.055,1.817C176.387,39.549,175.422,40.048,174.368,40.048z"/>
	<path d="M179.014,40.194c-0.461,0-1.068-0.109-1.346-0.629c-1.784-3.343-1.615-6.628,0.406-8.008
		c0.312-0.066,0.639-0.099,0.972-0.099c1.416,0,2.768,0.589,3.616,1.575c0.836,0.972,1.157,2.282,0.93,3.788
		C183.323,38.606,180.808,40.194,179.014,40.194C179.014,40.194,179.014,40.194,179.014,40.194z M179.565,33.395
		c0.203,1.216-1.157,4.294-1.171,4.325l-0.089,0.199l0.2,0.087c0.397,0.172,0.795,0.26,1.182,0.26c0.703,0,1.339-0.286,1.79-0.805
		c0.417-0.479,0.609-1.086,0.528-1.665c-0.197-1.405-2.035-2.57-2.113-2.619l-0.406-0.254L179.565,33.395z"/>
	<path d="M190.647,40.376c-0.884,0-1.757-0.211-2.595-0.628c-1.789-0.889-2.309-2.358-2.43-3.434
		c-0.211-1.88,0.634-3.796,1.573-4.563c0.559-0.456,1.185-0.552,1.612-0.552c0.842,0,1.661,0.38,2.037,0.945
		c0.24,0.36,0.286,0.769,0.135,1.188c-0.088,0.034-0.178,0.05-0.272,0.05c-0.229,0-0.462-0.096-0.708-0.198
		c-0.277-0.114-0.563-0.232-0.882-0.232c-0.254,0-0.489,0.074-0.718,0.228c-0.707,0.471-1.934,1.908-1.708,3.247
		c0.167,0.986,1.054,1.694,2.637,2.104c0.545,0.141,1.087,0.213,1.613,0.213c1.867,0,3.092-0.878,3.578-1.306
		c0.14,0.46-0.016,0.889-0.191,1.188C193.622,39.828,191.925,40.376,190.647,40.376z"/>
	<path d="M213.444,44.679c-2.921,0-5.867-0.885-8.756-2.631c-3.512-2.253-5.843-4.416-7.18-5.834l-0.422-0.447
		l0.05,0.613c0.114,1.407,0.271,3.334-0.03,3.661c-0.018,0.019-0.027,0.02-0.04,0.02c-0.032,0-0.158-0.02-0.432-0.275
		c-0.864-0.805-1.894-4.544-1.903-17.756c0.018-0.001,0.037-0.002,0.057-0.002c0.243,0,0.652,0.086,1.225,0.495
		c0.585,0.617,0.602,1.457,0.697,5.967c0.011,0.54,0.024,1.133,0.039,1.782c0.006,0.255,0.013,0.508,0.023,0.759l0.02,0.556
		l0.36-0.425c0.196-0.232,0.892-1.012,1.597-1.308c0.083-0.035,0.178-0.053,0.282-0.053c0.523,0,1.185,0.461,1.316,0.818
		c0.042,0.114,0.003,0.148-0.018,0.165c-1.149,0.976-2.521,2.222-2.535,2.235l-0.154,0.14l0.135,0.159
		c0.099,0.117,0.256,0.337,0.454,0.615c1.603,2.249,6.481,9.094,15.052,9.094c4.303,0,8.947-1.729,13.823-5.144
		c-0.693,0.759-1.688,1.75-2.94,2.735C221.809,42.472,218.037,44.679,213.444,44.679z"/>
	<path d="M50.073,40.769c-0.574,0-2.589-0.187-4.446-2.589c-0.124-0.161-0.264-0.31-0.442-0.31
		c-0.243,0-0.339,0.236-0.45,0.509c-0.238,0.586-0.68,1.676-2.636,1.982c-0.203,0.028-0.406,0.042-0.599,0.042
		c-0.891,0-1.648-0.306-2.25-0.909c-1.301-1.303-1.932-3.908-1.929-7.962c0.097-0.227,0.253-0.333,0.487-0.333
		c0.424,0,0.95,0.331,1.188,0.519c0.057,0.138,0.097,0.717,0.131,1.23c0.137,2.029,0.366,5.425,2.325,5.425
		c0.276,0,0.576-0.072,0.893-0.213c3.022-1.346,2.42-7.073,2.368-7.512c0.078-0.087,0.466-0.23,0.947-0.23
		c0.37,0,0.673,0.088,0.809,0.235c0.07,0.076,0.098,0.166,0.089,0.284l-0.001,0.013l0.001,0.013
		c0.185,4.218,0.554,5.008,1.443,6.917c0.082,0.177,0.169,0.363,0.261,0.564c0.731,1.594,2.197,1.977,2.901,2.161
		c0.003,0.001,0.006,0.001,0.009,0.002C50.81,40.715,50.441,40.769,50.073,40.769z"/>
</g>
</svg>
